<?xml version="1.0" encoding="utf-8"?>
<svg xmlns="http://www.w3.org/2000/svg" xmlns:xlink="http://www.w3.org/1999/xlink" width="3166"
	height="1583">
	<path transform="scale(3.0918 3.0918)"
		d="M271.25 470.34L84.9838 470.403C63.7908 470.424 37.5965 473.302 32.9097 444.602C29.8353 425.776 46.3184 404.255 55.0921 388.682L235.079 67.9838C243.656 52.9854 249.735 39.5826 268.846 36.6329C295.544 34.6081 303.103 53.1355 314.111 72.9961L488.197 390.75C499.983 412.34 518.27 438.301 495.901 460.52C484.188 472.155 470.2 470.392 455.046 470.382L271.25 470.34ZM272.813 146.277L146.319 375.842C142.185 383.41 137.669 390.875 133.725 398.527L271.75 398.466L410.223 398.507C401.759 382.201 392.792 366.17 384.034 350.022L282.249 162.199C280.474 158.979 275.193 147.881 272.813 146.277Z"
		fill="#F47521" />
	<path transform="scale(3.0918 3.0918)"
		d="M764.375 470.37L573.57 470.382C550.732 470.384 527.433 473.32 519.885 445.042C515.267 427.739 523.804 413.705 531.771 399.181L664.926 155.494C682.984 122.262 700.519 88.4996 719.653 55.874C726.152 44.7919 732.841 39.9721 745.207 36.7495C773.275 33.4333 781.197 53.3061 792.729 73.8574L978.449 407.061C984.187 417.348 991.855 426.973 991.948 439.316C992.183 470.298 965.496 470.418 944.051 470.394L764.375 470.37ZM750.029 147.748C748.226 156.424 721.563 202.176 716.378 211.654L638.823 353.882C635.461 360.085 616.975 396.309 613.936 398.498L752.375 398.466L888.067 398.512C887.877 395.101 884.104 389.692 882.452 386.622L760.85 164.947C758.289 160.225 754.785 151.776 751.213 148.038L750.029 147.748Z"
		fill="#F47521" />
</svg>